<svg xmlns="http://www.w3.org/2000/svg" xmlns:xlink="http://www.w3.org/1999/xlink" viewBox="0 0 181.67 181.67"><defs><style>.cls-1{fill:url(#linear-gradient);}.cls-2{fill:url(#New_Gradient_Swatch);}.cls-3{fill:#f1f1f2;opacity:0.25;}</style><linearGradient id="linear-gradient" x1="0.58" y1="0.58" x2="117.83" y2="117.83" gradientUnits="userSpaceOnUse"><stop offset="0" stop-color="#14b0b6"/><stop offset="0.82" stop-color="#86cdd3"/></linearGradient><linearGradient id="New_Gradient_Swatch" x1="98.08" y1="98.08" x2="178.09" y2="178.09" xlink:href="#linear-gradient"/></defs><g id="Object"><path class="cls-1" d="M90.8,100.73c2.6-4.54,4.28-9.53,6.06-14.81,1.85-5.49,3.76-11.16,6.81-16.39A46,46,0,0,1,120.43,53V9.87A9.86,9.86,0,0,0,110.57,0H71.11a9.87,9.87,0,0,0-9.87,9.87V61.24H9.87A9.87,9.87,0,0,0,0,71.11v39.46a9.86,9.86,0,0,0,9.87,9.86h51A40.47,40.47,0,0,0,90.8,100.73Z"/><path class="cls-2" d="M171.81,61.24H120.53a38.41,38.41,0,0,0-10.81,11.82c-2.69,4.61-4.41,9.7-6.23,15.1s-3.68,10.91-6.61,16a47.6,47.6,0,0,1-35.64,23.23v44.38a9.86,9.86,0,0,0,9.87,9.86h39.46a9.85,9.85,0,0,0,9.86-9.86V120.43h51.38a9.85,9.85,0,0,0,9.86-9.86V71.11A9.86,9.86,0,0,0,171.81,61.24Z"/><path class="cls-3" d="M120.19,7.72A9.85,9.85,0,0,0,110.57,0H71.11a9.87,9.87,0,0,0-9.87,9.87V61.24H9.87A9.87,9.87,0,0,0,0,71.11v39.46a9.73,9.73,0,0,0,.66,3.51c23.09.07,46.12-10.78,60.38-29,6.16-7.88,10.73-16.85,15.57-26.36,5-9.87,10.21-20.07,17.42-29.12A86.57,86.57,0,0,1,120.19,7.72Z"/></g></svg>